<?xml version="1.0" encoding="UTF-8" standalone="no"?>
<!-- Created with Inkscape (http://www.inkscape.org/) -->

<svg
   width="120"
   height="120"
   viewBox="0 0 120 120"
   version="1.1"
   id="svg5"
   xml:space="preserve"
   inkscape:export-filename="Secondary/Pistol/Pistol_Icon.png"
   inkscape:export-xdpi="51.200001"
   inkscape:export-ydpi="51.200001"
   inkscape:version="1.2.2 (b0a8486541, 2022-12-01)"
   sodipodi:docname="weapon_resource_icon.svg"
   xmlns:inkscape="http://www.inkscape.org/namespaces/inkscape"
   xmlns:sodipodi="http://sodipodi.sourceforge.net/DTD/sodipodi-0.dtd"
   xmlns="http://www.w3.org/2000/svg"
   xmlns:svg="http://www.w3.org/2000/svg"><sodipodi:namedview
     id="namedview7"
     pagecolor="#505050"
     bordercolor="#eeeeee"
     borderopacity="1"
     inkscape:showpageshadow="0"
     inkscape:pageopacity="0"
     inkscape:pagecheckerboard="0"
     inkscape:deskcolor="#505050"
     inkscape:document-units="px"
     showgrid="true"
     inkscape:zoom="5.6568543"
     inkscape:cx="80.786949"
     inkscape:cy="57.275649"
     inkscape:window-width="1920"
     inkscape:window-height="1027"
     inkscape:window-x="1920"
     inkscape:window-y="24"
     inkscape:window-maximized="1"
     inkscape:current-layer="layer3"
     showguides="false"><inkscape:grid
       type="xygrid"
       id="grid1007" /></sodipodi:namedview><defs
     id="defs2" /><g
     inkscape:groupmode="layer"
     id="layer3"
     inkscape:label="Pistol"><path
       style="fill:#ffffff;stroke:#fdfdfd;stroke-width:1px;stroke-linecap:butt;stroke-linejoin:miter;stroke-opacity:1;fill-opacity:1"
       d="M 38.383179,85.989654 H 22.544682 l 0.222115,-1.575826 1.386247,-0.721408 0.05719,-0.847949 -3.175572,-0.262031 -2.445375,-1.472439 -0.110658,-2.665305 2.949314,-7.791327 6.077368,-9.78273 2.91565,-6.907743 0.608662,-4.254202 -0.828252,-2.540647 -1.58005,-1.418767 -2.673229,-0.498449 -1.314259,-0.812357 0.201485,-1.760648 1.061372,-1.444114 v -7.969685 l 3.708858,0.113304 1.021667,-1.839682 h 1.253556 v 1.707812 h 63.130061 l 0.373363,-1.305175 h 1.081786 l 0.566864,1.261097 h 1.459724 v 2.15445 h 1.244851 v 5.163391 h -1.069317 v 6.063658 l -1.496296,1.496296 H 72.741608 l -1.470697,1.683184 -0.364041,1.454612 -0.04419,1.387817 v 2.164182 l 0.423966,1.778557 0.827681,2.201972 H 54.552451 l -2.623079,-0.958804 -2.411172,1.16365 -1.828793,4.83828 0.731728,2.413014 -2.39789,1.427434 -0.93345,2.930928 0.556376,2.135795 c 0,0 -2.498093,1.397347 -2.587302,1.586483 -0.08921,0.189136 -1.241396,3.928682 -1.241396,3.928682 l 0.08274,3.424204 -0.543105,1.129123 -2.746189,0.08859 0.0032,1.06841 h 1.282991 v 2.070652 z"
       id="path1040"
       inkscape:label="path1040" /></g></svg>
